<?xml version="1.0" standalone="no"?>
<!DOCTYPE svg PUBLIC "-//W3C//DTD SVG 20010904//EN"
 "http://www.w3.org/TR/2001/REC-SVG-20010904/DTD/svg10.dtd">
<svg version="1.0" xmlns="http://www.w3.org/2000/svg"
 width="16.000000pt" height="16.000000pt" viewBox="0 0 16.000000 16.000000"
 preserveAspectRatio="xMidYMid meet">
<metadata>
Created by potrace 1.11, written by Peter Selinger 2001-2013
</metadata>
<g transform="translate(0.000000,16.000000) scale(0.000640,-0.000640)"
fill="#000000" stroke="none">
<path d="M3580 19830 l0 -1430 3340 0 3340 0 2 -4747 3 -4748 27 -58 c57 -120
180 -215 311 -237 175 -31 359 65 440 229 l32 66 3 5162 2 5163 -3335 0 -3335
0 0 600 0 600 7305 0 7305 0 0 -4715 c0 -3131 -3 -4774 -10 -4888 -45 -747
-177 -1433 -409 -2127 -352 -1052 -902 -1993 -1641 -2805 -1103 -1211 -2593
-2016 -4174 -2255 -658 -99 -1369 -106 -2041 -20 -1325 171 -2688 700 -3960
1538 -261 172 -273 177 -410 177 -99 0 -116 -3 -168 -27 -164 -77 -268 -269
-238 -439 14 -82 50 -158 103 -215 25 -28 125 -102 243 -179 458 -302 971
-592 1435 -810 1704 -802 3410 -1089 5088 -854 1367 191 2700 771 3802 1654
258 207 406 340 671 605 255 255 399 414 598 660 987 1220 1625 2698 1850
4285 33 233 57 453 67 623 4 61 11 112 16 112 4 0 8 2365 8 5255 l0 5255
-8135 0 -8135 0 0 -1430z"/>
<path d="M12510 9486 c-226 -63 -358 -276 -321 -515 23 -152 105 -268 234
-330 236 -116 513 -28 624 197 l38 76 0 135 c0 132 -1 138 -31 202 -78 163
-222 250 -412 248 -48 0 -107 -6 -132 -13z"/>
</g>
</svg>
